<?xml version="1.0" encoding="UTF-8"?>
<svg width="128px" height="128px" viewBox="0 0 128 128" xmlns="http://www.w3.org/2000/svg">
  <path fill="#0074BD" d="M47.617 98.12s-4.767 2.774 3.397 3.71c9.892 1.13 14.947.968 25.845-1.092 0 0 2.871 1.795 6.873 3.351-24.439 10.47-55.308-.607-36.115-5.969zM44.629 84.455s-5.348 3.959 2.823 4.805c10.567 1.091 18.91 1.18 33.354-1.6 0 0 1.993 2.025 5.132 3.461-29.542 8.64-62.446.68-41.309-6.666z"/>
  <path fill="#EA2D2E" d="M69.802 61.271c6.025 6.935-1.58 13.17-1.58 13.17s15.289-7.891 8.269-17.777c-6.559-9.215-11.587-13.792 15.635-29.58 0 .001-42.731 10.67-22.324 34.187z"/>
  <path fill="#0074BD" d="M102.123 108.229s3.529 2.91-3.888 5.159c-14.102 4.272-58.706 5.56-71.094.171-4.451-1.938 3.899-4.625 6.526-5.192 2.739-.593 4.303-.485 4.303-.485-4.953-3.487-32.013 6.85-13.743 9.815 49.821 8.076 90.817-3.637 77.896-9.468zM49.912 70.294s-22.686 5.589-8.033 7.768c6.188.914 18.518.638 30.011-.326 9.39-.789 18.813-2.474 18.813-2.474s-3.308 1.419-5.704 3.053c-23.042 6.061-67.544 3.238-54.731-2.958 10.832-5.229 19.644-5.063 19.644-5.063zM90.609 93.041c23.421-12.167 12.591-23.86 5.032-22.285-1.848.385-2.677.722-2.677.722s.688-1.079 2-1.543c14.953-5.255 26.451 15.503-4.823 23.725 0 0 .354-.327.468-.619z"/>
  <path fill="#EA2D2E" d="M76.491 1.587s12.968 12.97-12.968 25.94c-17.123 8.67-13.674 15.237-4.62 20.591 9.876 5.823 19.186 5.295 25.282 2.938 10.183-3.122 17.106-9.335 17.106-9.335s-4.339 4.339-9.335 7.255c-14.083 6.591-41.656 4.339-33.09-5.295C85.404 33.442 103.33 16.503 76.491 1.587z"/>
  <path fill="#0074BD" d="M52.214 126.021c22.476 1.437 57-.8 57.817-11.436 0 0-1.571 4.032-18.577 7.231-19.186 3.634-39.24 3.364-39.24 4.205z"/>
</svg> 