<?xml version="1.0" encoding="UTF-8"?>
<svg width="128px" height="128px" viewBox="0 0 128 128" xmlns="http://www.w3.org/2000/svg">
  <path fill="#83CD29" d="M112.5 73.2c-.8-.4-4.9-2.4-5.7-2.7-.8-.3-1.4-.4-2 .4-.6.8-2.4 2.7-3 3.2-.5.5-1 .6-1.8.2-1.4-.7-2.8-1.5-4-2.4-3.1-2-5.2-4.6-6.5-8.1-3.3-8.6-1.5-19.1 4.5-25.9 1.2-1.4 2.5-2.6 4.1-3.5.8-.5 1.1-.4 1.5.4.3.7 1.5 2 1.5 2s.1.1.1.2c.1.1.1.2 0 .3 0 0-1.4 1.9-1.6 2.2-.2.3-.5.4-.9.2-1.1-.5-2.2-.9-3.4-1.1-2.5-.4-5.1-.1-7.5 1-3.3 1.5-5.8 4.1-7.3 7.4-3.1 6.7-1.6 15.1 3.5 20.3 1.3 1.3 2.7 2.4 4.3 3.2.8.4 1.1.3 1.4-.4.2-.5.9-1.8 1.2-2.4.3-.6.5-.8 1-.5.4.3 2.6 1.5 4 2.3.5.3.8.4 1 .8.2.4 0 .8-.2 1.1zM67.1 91.5c-4.1 0-7.4-1.2-9.9-3.5-2.4-2.2-3.6-5.3-3.6-9.1 0-3.8 1.2-6.9 3.6-9.1 2.5-2.2 5.8-3.4 9.9-3.4 1.9 0 3.7.3 5.4.8 1.7.5 3.1 1.2 4.4 2.1.6.4 1.1.9 1.5 1.4.3.5.3 1 0 1.4-.3.4-.8.6-1.3.6-.4 0-.8-.2-1.1-.5-.3-.3-.6-.6-.9-.8-1-.8-2.1-1.4-3.3-1.8-1.2-.4-2.5-.6-3.8-.6-2.6 0-4.7.8-6.3 2.3-1.6 1.5-2.4 3.6-2.4 6.1 0 2.5.8 4.6 2.4 6.1 1.6 1.5 3.7 2.3 6.3 2.3 1.3 0 2.6-.2 3.8-.6 1.2-.4 2.3-1 3.3-1.8.3-.2.6-.5.9-.8.3-.3.7-.5 1.1-.5.5 0 .9.2 1.3.6.3.4.3.9 0 1.4-.4.5-.9 1-1.5 1.4-1.3.9-2.8 1.6-4.4 2.1-1.7.5-3.5.8-5.4.8z"/>
  <path fill="#83CD29" d="M64 14.3c-27.2 0-49.3 22.1-49.3 49.3s22.1 49.3 49.3 49.3 49.3-22.1 49.3-49.3-22.1-49.3-49.3-49.3zm0 92.5c-23.8 0-43.2-19.4-43.2-43.2S40.2 20.4 64 20.4s43.2 19.4 43.2 43.2-19.4 43.2-43.2 43.2z"/>
</svg> 