<?xml version="1.0" encoding="UTF-8"?>
<svg width="128px" height="128px" viewBox="0 0 128 128" xmlns="http://www.w3.org/2000/svg">
  <path fill="#777BB4" d="M64 14.3c-27.2 0-49.3 22.1-49.3 49.3s22.1 49.3 49.3 49.3 49.3-22.1 49.3-49.3-22.1-49.3-49.3-49.3zm0 92.5c-23.8 0-43.2-19.4-43.2-43.2S40.2 20.4 64 20.4s43.2 19.4 43.2 43.2-19.4 43.2-43.2 43.2z"/>
  <path fill="#777BB4" d="M45.5 50.1c-1.1 0-2 .9-2 2v23.6c0 1.1.9 2 2 2h3.3c1.1 0 2-.9 2-2V52.1c0-1.1-.9-2-2-2h-3.3zm12.8 0c-1.1 0-2 .9-2 2v23.6c0 1.1.9 2 2 2h3.3c1.1 0 2-.9 2-2V52.1c0-1.1-.9-2-2-2h-3.3zm12.8 0c-1.1 0-2 .9-2 2v23.6c0 1.1.9 2 2 2h3.3c1.1 0 2-.9 2-2V52.1c0-1.1-.9-2-2-2h-3.3z"/>
</svg> 