<?xml version="1.0" encoding="UTF-8"?>
<svg width="128px" height="128px" viewBox="0 0 128 128" xmlns="http://www.w3.org/2000/svg">
  <path fill="#3776AB" d="M63.391 1.988c-4.222.02-8.252.379-11.8 1.007-10.45 1.846-12.346 5.71-12.346 12.837v9.411h24.693v3.137H29.977c-7.176 0-13.46 4.313-15.426 12.521-2.268 9.405-2.368 15.275 0 25.096 1.755 7.311 5.947 12.519 13.124 12.519h8.491V67.234c0-8.151 7.051-15.34 15.426-15.34h24.665c6.866 0 12.346-5.654 12.346-12.548V15.833c0-6.693-5.646-11.72-12.346-12.837-4.244-.706-8.645-1.027-12.866-1.008zM50.037 9.557c2.55 0 4.634 2.117 4.634 4.721 0 2.593-2.083 4.69-4.634 4.69-2.56 0-4.633-2.097-4.633-4.69-.001-2.604 2.073-4.721 4.633-4.721z"/>
  <path fill="#FFD43B" d="M91.512 67.234c0 8.151-7.052 15.34-15.426 15.34H51.421c-6.866 0-12.346 5.654-12.346 12.548v11.878c0 6.693 5.646 11.72 12.346 12.837 4.236.706 8.646 1.027 12.866 1.008 4.222-.02 8.252-.379 11.8-1.007 10.45-1.846 12.346-5.71 12.346-12.837v-9.412H63.938v-3.137h37.012c7.176 0 13.46-4.313 15.426-12.521 2.268-9.405 2.368-15.275 0-25.096-1.755-7.311-5.947-12.519-13.124-12.519h-9.268zm-12.874 19.343c2.56 0 4.634 2.097 4.634 4.69 0 2.604-2.074 4.722-4.634 4.722-2.55 0-4.633-2.118-4.633-4.722 0-2.593 2.083-4.69 4.633-4.69z"/>
</svg> 