<?xml version="1.0" encoding="UTF-8"?>
<svg width="128px" height="128px" viewBox="0 0 128 128" xmlns="http://www.w3.org/2000/svg">
  <path fill="#2C8EBB" d="M64 14.3c-27.2 0-49.3 22.1-49.3 49.3s22.1 49.3 49.3 49.3 49.3-22.1 49.3-49.3-22.1-49.3-49.3-49.3zm0 92.5c-23.8 0-43.2-19.4-43.2-43.2S40.2 20.4 64 20.4s43.2 19.4 43.2 43.2-19.4 43.2-43.2 43.2z"/>
  <path fill="#fff" d="M64 30.2c-18.4 0-33.3 14.9-33.3 33.3S45.6 96.8 64 96.8s33.3-14.9 33.3-33.3S82.4 30.2 64 30.2zm0 60.3c-14.9 0-27-12.1-27-27s12.1-27 27-27 27 12.1 27 27-12.1 27-27 27z"/>
  <path fill="#fff" d="M64 46.1c-9.6 0-17.4 7.8-17.4 17.4s7.8 17.4 17.4 17.4 17.4-7.8 17.4-17.4-7.8-17.4-17.4-17.4zm0 28.8c-6.3 0-11.4-5.1-11.4-11.4s5.1-11.4 11.4-11.4 11.4 5.1 11.4 11.4-5.1 11.4-11.4 11.4z"/>
</svg> 